<svg width="24" height="24" viewBox="0 0 24 24" fill="none" xmlns="http://www.w3.org/2000/svg">
<path d="M6.66669 12L6.66669 6.66667C6.66669 3.72115 9.0545 1.33334 12 1.33334V1.33334C14.9455 1.33334 17.3334 3.72115 17.3334 6.66667L17.3334 12" stroke="#383838" stroke-width="2" stroke-linecap="round"/>
<path d="M1.02768 11.6678C1.17276 9.92692 1.24529 9.05647 1.81938 8.52824C2.39347 8 3.26693 8 5.01386 8H18.9861C20.7331 8 21.6065 8 22.1806 8.52824C22.7547 9.05647 22.8272 9.92692 22.9723 11.6678L23.8195 21.8339C23.904 22.8474 23.9462 23.3542 23.6491 23.6771C23.352 24 22.8435 24 21.8264 24H2.1736C1.15655 24 0.648019 24 0.350917 23.6771C0.0538151 23.3542 0.0960459 22.8474 0.180508 21.8339L1.02768 11.6678Z" fill="#383838"/>
</svg>
