<svg width="20" height="16" viewBox="0 0 20 16" fill="none" xmlns="http://www.w3.org/2000/svg">
<path fill-rule="evenodd" clip-rule="evenodd" d="M1.12868 1.29537C0.25 2.17405 0.25 3.58826 0.25 6.41669V9.58335C0.25 12.4118 0.25 13.826 1.12868 14.7047C2.00736 15.5834 3.42157 15.5834 6.25 15.5834H13.75C16.5784 15.5834 17.9926 15.5834 18.8713 14.7047C19.75 13.826 19.75 12.4118 19.75 9.58335V6.41669C19.75 3.58826 19.75 2.17405 18.8713 1.29537C17.9926 0.416687 16.5784 0.416687 13.75 0.416687H6.25C3.42157 0.416687 2.00736 0.416687 1.12868 1.29537ZM4.0547 3.91797C3.59517 3.61162 2.9743 3.73579 2.66795 4.19532C2.3616 4.65485 2.48577 5.27572 2.9453 5.58207L8.8906 9.5456C9.5624 9.99347 10.4376 9.99347 11.1094 9.5456L17.0547 5.58207C17.5142 5.27572 17.6384 4.65485 17.3321 4.19532C17.0257 3.73579 16.4048 3.61162 15.9453 3.91797L10 7.8815L4.0547 3.91797Z" fill="#383838"/>
</svg>
