<svg width="16" height="18" viewBox="0 0 16 18" fill="none" xmlns="http://www.w3.org/2000/svg">
<path fill-rule="evenodd" clip-rule="evenodd" d="M8.39782 17.4716C9.95922 16.6671 15.5834 13.3894 15.5834 7.91671C15.5834 3.72855 12.1882 0.333374 8.00002 0.333374C3.81186 0.333374 0.416687 3.72855 0.416687 7.91671C0.416687 13.3894 6.04082 16.6671 7.60222 17.4716C7.85544 17.6021 8.1446 17.6021 8.39782 17.4716ZM8.00002 11.1667C9.79495 11.1667 11.25 9.71163 11.25 7.91671C11.25 6.12178 9.79495 4.66671 8.00002 4.66671C6.2051 4.66671 4.75002 6.12178 4.75002 7.91671C4.75002 9.71163 6.2051 11.1667 8.00002 11.1667Z" fill="white"/>
</svg>
