<svg width="42" height="43" viewBox="0 0 42 43" fill="none" xmlns="http://www.w3.org/2000/svg">
<path d="M38.95 3.08125L24.4188 0.5L3.33125 21.2125L20.5938 38.7875L41.6813 18.0813L38.95 3.08125ZM33.7 11.625C33.163 11.6262 32.6377 11.468 32.1907 11.1705C31.7436 10.8729 31.395 10.4493 31.1889 9.95342C30.9829 9.45752 30.9286 8.91161 31.0331 8.38486C31.1375 7.8581 31.396 7.37421 31.7757 6.99448C32.1555 6.61475 32.6394 6.35629 33.1661 6.25182C33.6929 6.14736 34.2388 6.2016 34.7347 6.40768C35.2306 6.61376 35.6541 6.96239 35.9517 7.40942C36.2493 7.85644 36.4075 8.38174 36.4063 8.91875C36.4063 9.27414 36.3363 9.62605 36.2003 9.95439C36.0643 10.2827 35.8649 10.5811 35.6136 10.8324C35.3623 11.0837 35.064 11.283 34.7356 11.419C34.4073 11.555 34.0554 11.625 33.7 11.625Z" fill="#383838"/>
<path d="M15.9949 39.2893L3.08575 26.3802C2.58051 25.8749 1.76135 25.8749 1.25611 26.3802L1.25169 26.3846C0.74645 26.8898 0.74645 27.709 1.25169 28.2142L14.1608 41.1233C14.666 41.6286 15.4852 41.6286 15.9904 41.1233L15.9949 41.1189C16.5001 40.6137 16.5001 39.7945 15.9949 39.2893Z" fill="#383838"/>
</svg>
