<svg width="24" height="24" viewBox="0 0 24 24" fill="none" xmlns="http://www.w3.org/2000/svg">
<path d="M23.6701 17.6998V8.30229C23.6701 7.66577 23.4173 7.05532 22.9672 6.60523C22.5171 6.15514 21.9067 5.90229 21.2701 5.90229H18.3511V0.779785H5.55015V5.90229H2.72715C2.09063 5.90229 1.48018 6.15514 1.03009 6.60523C0.580005 7.05532 0.327148 7.66577 0.327148 8.30229V18.8998H5.55015V23.2198H18.3541V18.8998H23.6701V17.6998ZM6.75015 1.97979H17.1542V5.90229H6.75015V1.97979ZM17.1542 22.0198H6.75015V16.1173H17.1542V22.0198ZM18.3541 16.0798H18.9541V14.8798H4.93665V16.0798H5.55015V17.6998H1.52715V8.30229C1.52715 7.98403 1.65358 7.6788 1.87862 7.45376C2.10366 7.22871 2.40889 7.10228 2.72715 7.10228H21.2672C21.5854 7.10228 21.8906 7.22871 22.1157 7.45376C22.3407 7.6788 22.4671 7.98403 22.4671 8.30229V17.6998H18.3511L18.3541 16.0798Z" fill="#6E6E6E"/>
<path d="M15.5493 17.0186H8.3418V17.9186H15.5493V17.0186Z" fill="#6E6E6E"/>
<path d="M15.5493 19.6152H8.3418V20.5152H15.5493V19.6152Z" fill="#6E6E6E"/>
<path d="M4.07577 8.87207H2.09277V10.8551H4.07577V8.87207Z" fill="#6E6E6E"/>
<path d="M6.81015 8.87207H4.82715V10.8551H6.81015V8.87207Z" fill="#6E6E6E"/>
<path d="M9.54306 8.87207H7.56006V10.8551H9.54306V8.87207Z" fill="#6E6E6E"/>
</svg>
